# xmcd CD database file
#
# Track frame offsets:
#	150
#	28034
#	54711
#	88311
#	129255
#	175510
#	221807
#	259156
#
# Disc length: 3903 seconds
#
# Revision: 0
# Processed by: cddbd v1.5.2PL0 Copyright (c) Steve Scherf et al.
# Submitted via: CDex 1.70beta2
#
DISCID=6f0f3d08
DTITLE=Cook, Junior - On a misty night
DYEAR=1989
DGENRE=Jazz
TTITLE0=on a misty night
TTITLE1=innocent one
TTITLE2=wabash
TTITLE3=you know who
TTITLE4=make the girl love me
TTITLE5=my sweet pumpkin
TTITLE6=nothing ever changes
TTITLE7=i'll go my way my myself
EXTD=YEAR: 1989
EXTT0=
EXTT1=
EXTT2=
EXTT3=
EXTT4=
EXTT5=
EXTT6=
EXTT7=
PLAYORDER=
